<?xml version="1.0" encoding="utf-8"?>
<!-- Generator: Adobe Illustrator 19.2.1, SVG Export Plug-In . SVG Version: 6.00 Build 0)  -->
<svg version="1.1" id="Слой_1" xmlns="http://www.w3.org/2000/svg" xmlns:xlink="http://www.w3.org/1999/xlink" x="0px" y="0px"
	 viewBox="0 0 28.4 28.4" style="enable-background:new 0 0 28.4 28.4;" xml:space="preserve">
<style type="text/css">
	.st0{fill:#FFFFFF;}
</style>
<g>
	<g>
		<path class="st0" d="M25.7,8.6H2.6c-0.8,0-1.5-0.7-1.5-1.5s0.7-1.5,1.5-1.5h23.1c0.8,0,1.5,0.7,1.5,1.5S26.5,8.6,25.7,8.6z"/>
	</g>
	<g>
		<path class="st0" d="M25.7,15.7H2.6c-0.8,0-1.5-0.7-1.5-1.5c0-0.8,0.7-1.5,1.5-1.5h23.1c0.8,0,1.5,0.7,1.5,1.5
			C27.2,15,26.5,15.7,25.7,15.7z"/>
	</g>
	<g>
		<path class="st0" d="M25.7,22.8H2.6c-0.8,0-1.5-0.7-1.5-1.5s0.7-1.5,1.5-1.5h23.1c0.8,0,1.5,0.7,1.5,1.5S26.5,22.8,25.7,22.8z"/>
	</g>
</g>
</svg>
