<?xml version="1.0" encoding="utf-8"?>
<!-- Generator: Adobe Illustrator 19.2.1, SVG Export Plug-In . SVG Version: 6.00 Build 0)  -->
<svg version="1.1" id="Слой_1" xmlns="http://www.w3.org/2000/svg" xmlns:xlink="http://www.w3.org/1999/xlink" x="0px" y="0px"
	 viewBox="0 0 28.4 28.4" style="enable-background:new 0 0 28.4 28.4;" xml:space="preserve">
<style type="text/css">
	.st0{fill:#FFFFFF;}
</style>
<g>
	<path class="st0" d="M21.3,23.4L5,7.1C4.4,6.5,4.4,5.5,5,5c0.6-0.6,1.5-0.6,2.1,0l16.3,16.3c0.6,0.6,0.6,1.5,0,2.1
		C22.8,24,21.9,24,21.3,23.4z"/>
</g>
<g>
	<path class="st0" d="M23.4,7.1L7.1,23.4C6.5,24,5.5,24,5,23.4c-0.6-0.6-0.6-1.5,0-2.1L21.3,5c0.6-0.6,1.5-0.6,2.1,0
		C24,5.5,24,6.5,23.4,7.1z"/>
</g>
</svg>
