<?xml version="1.0" encoding="utf-8"?>
<!-- Generator: Adobe Illustrator 19.2.1, SVG Export Plug-In . SVG Version: 6.00 Build 0)  -->
<svg version="1.1" id="Слой_1" xmlns="http://www.w3.org/2000/svg" xmlns:xlink="http://www.w3.org/1999/xlink" x="0px" y="0px"
	 viewBox="0 0 135.4 110.7" style="enable-background:new 0 0 135.4 110.7;" xml:space="preserve">
<style type="text/css">
	.st0{fill:#F2DA00;}
</style>
<g id="Group_16" transform="translate(-1418.472 987.906)">
	<path id="Path_43" class="st0" d="M1550.2-932c-5.8-1.1-11.6-1.8-17.5-2.2c0-0.9,0.1-1.8,0.1-2.7c0-28.2-22.9-51-51.1-51
		s-51,22.9-51,51.1c0,5.8,1,11.5,2.9,16.9c-6.5,0.5-11.3,1.5-11.5,1.5l-3.7,0.7l1.6,3.4c0.5,1,12.2,25.6,27,33.1
		c5.3,2.7,10.3,4.1,14.8,4.1l0,0c6.4,0.2,12.3-3.1,15.6-8.6c4.6,5.4,11.3,8.5,18.4,8.3c6,0,12.7-1.8,19.8-5.4
		c19.9-10.1,35.9-43.6,36.6-45l1.6-3.4L1550.2-932z M1523.8-953.5c-2.1-1.7-4.3-3.1-6.6-4.4c-3.2-1.7-6.6-3.2-10.1-4.3
		c-1.1-3.5-2.5-6.9-4.3-10.1c-1.3-2.3-2.7-4.6-4.4-6.6C1510-974.3,1519.2-965.1,1523.8-953.5z M1526.6-939.8h-15.9
		c-0.2-5.2-0.8-10.4-1.8-15.5C1518.4-951.6,1525-946,1526.6-939.8L1526.6-939.8z M1484.7-981.7c6.2,1.6,11.8,8.3,15.5,17.7
		c-5.1-1.1-10.3-1.7-15.5-1.8V-981.7z M1484.7-960c6,0.2,11.9,1,17.6,2.5c1.5,5.8,2.4,11.7,2.5,17.6h-20.2V-960z M1484.7-934h20.2
		c0,0.3,0,0.5,0,0.8c-4.4,0.8-8.6,2.1-12.6,4c-2.6,1.3-5.2,2.8-7.6,4.5V-934z M1478.9-981.7v15.9c-5.2,0.2-10.4,0.8-15.5,1.8
		C1467.1-973.4,1472.7-980.1,1478.9-981.7L1478.9-981.7z M1478.9-960v20.2h-20.2c0.2-6,1-11.9,2.5-17.6
		C1467-958.9,1473-959.8,1478.9-960L1478.9-960z M1465.2-978.9c-1.7,2.1-3.1,4.3-4.4,6.6c-1.7,3.2-3.2,6.6-4.3,10.1
		c-3.5,1.1-6.9,2.5-10.1,4.3c-2.3,1.3-4.6,2.7-6.6,4.4C1444.4-965.1,1453.6-974.3,1465.2-978.9z M1454.8-955.3
		c-1.1,5.1-1.7,10.3-1.8,15.5H1437C1438.6-946,1445.3-951.6,1454.8-955.3z M1452.9-934c0.2,4.9,0.7,9.7,1.6,14.5
		c-1-0.2-2-0.3-3.1-0.4c-7.7-3.6-13-8.6-14.5-14L1452.9-934L1452.9-934z M1471.1-886.9c-2.4,2.6-5.7,4-9.2,3.9l0,0
		c-3.6,0-7.6-1.2-12.2-3.4c-9.9-5-18.9-20-22.6-26.9c5.2-0.8,10.5-1.2,15.8-1.2c8.3,0,14.8,1.1,19.3,3.4c3.5,1.6,6.6,3.9,9.2,6.7
		c-0.4,4.4,0.4,8.9,2.4,12.9l-29.5-13.8L1471.1-886.9z M1467.3-915c-0.8-0.5-1.6-0.9-2.4-1.3c-1.3-0.6-2.6-1.1-3.9-1.6
		c-1.3-5.2-2-10.6-2.2-16h20.2v14.2c-1.7,1.7-3.1,3.6-4.3,5.6C1472.1-914.3,1469.6-914.6,1467.3-915L1467.3-915z M1513.1-888.1
		c-6.3,3.2-12.1,4.8-17.2,4.8c-5.4,0.2-10.5-2.1-14-6.3l40.5-25.9l-43.1,22c0,0,0,0,0,0c0,0,0,0,0,0c-5.8-11.4,0-22.5,15.7-30.4
		c6.3-3.2,15.3-4.8,26.9-4.8c7.8,0.1,15.7,0.7,23.4,1.9C1540.7-918.2,1527.7-895.5,1513.1-888.1L1513.1-888.1z"/>
</g>
</svg>
