<?xml version="1.0" encoding="utf-8"?>
<!-- Generator: Adobe Illustrator 19.2.1, SVG Export Plug-In . SVG Version: 6.00 Build 0)  -->
<svg version="1.1" id="Слой_1" xmlns="http://www.w3.org/2000/svg" xmlns:xlink="http://www.w3.org/1999/xlink" x="0px" y="0px"
	 viewBox="0 0 387.3 67" style="enable-background:new 0 0 387.3 67;" xml:space="preserve">
<style type="text/css">
	.st0{fill:#FFFFFF;}
</style>
<g transform="translate(-1499 31)">
	<g transform="translate(136.865 12.42)">
		<g transform="translate(0.124)">
			<path class="st0" d="M1518.6-19.7h-11.3v-4h13.7l1.2-3.1h-19v18.1h15.5c1.1,0.1,2.2-0.2,3.1-0.7c0.7-0.7,1.1-1.7,1-2.7v-4
				c0.1-1-0.3-1.9-1-2.6C1521-19.4,1519.8-19.8,1518.6-19.7z M1518.6-13.1c0,0.4-0.1,0.8-0.4,1.1c-0.2,0.2-0.7,0.2-1.5,0.2h-9.4
				v-4.8h9.4c0.5-0.1,1.1,0.1,1.5,0.4c0.3,0.3,0.4,0.7,0.4,1.1V-13.1z"/>
			<path class="st0" d="M1533.8-16.1c-0.4,0.3-0.8,0.6-1.1,1c-0.2,0.2-0.5,0.6-0.9,1c0-0.4,0-0.8,0.1-1.1c0-0.3,0-0.7,0.1-1v-10.6
				h-3.8v18.1h2.9l13.3-11.2c0.3-0.2,0.6-0.5,0.9-0.7c0.2-0.2,0.5-0.5,0.6-0.7c0,0.3,0,0.6-0.1,0.9c0,0.4,0,0.6-0.1,0.7v11.1h3.8
				v-18.1h-2.9L1533.8-16.1z"/>
			<path class="st0" d="M1572.4-26.7h-13.3c-1.7,0-3,0.2-3.6,0.9s-0.9,1.7-0.9,3.4v9.6c0,1.6,0.2,2.7,0.9,3.4s1.9,0.9,3.6,0.9h13.3
				c1.7,0,3-0.2,3.6-0.9c0.8-0.9,1.1-2.1,1-3.4v-9.6c0.1-1.2-0.2-2.4-1-3.4C1574.9-26.5,1573.7-26.8,1572.4-26.7z M1572.7-12h-13.9
				v-11.4h13.9V-12z"/>
			<path class="st0" d="M1594.5-15.7l-8.4-11.1h-3.4v18.1h3.4v-12c0-0.4-0.1-0.6-0.1-1c0.1,0.3,0.3,0.6,0.5,0.9s0.4,0.7,0.6,1
				l6.8,9.1h0.9l6.8-9.1c0.2-0.2,0.3-0.5,0.5-0.7c0.1-0.1,0.1-0.2,0.2-0.5s0.2-0.4,0.4-0.6c0,0.5-0.1,0.9-0.1,1.1v11.9h3.8v-18.1
				h-3.4L1594.5-15.7z"/>
			<path class="st0" d="M1615.6-16.4h8.3v-3.1h-8.3v-4.1h14.3v-3.1h-18.5v18.1h18.8V-12h-14.5v-4.4H1615.6z"/>
			<path class="st0" d="M1688.7-26.7h-4.8l-5.5,6.2l-5.8-6.2h-5.6l8.8,8.8l-8.7,9.3h5.1l6.1-7l6.6,7h5.7l-9.7-9.8L1688.7-26.7z"/>
			<path class="st0" d="M1700.5-16.1c-0.4,0.3-0.8,0.6-1.1,1c-0.2,0.2-0.5,0.6-0.9,1c0-0.4,0-0.8,0.1-1.1c0-0.3,0-0.7,0.1-1v-10.6
				h-3.8v18.1h2.9l13.3-11.2c0.3-0.2,0.6-0.5,0.9-0.7c0.2-0.2,0.5-0.5,0.6-0.7c0,0.3,0,0.6-0.1,0.9c0,0.4,0,0.6-0.1,0.7v11.1h3.8
				v-18.1h-2.9L1700.5-16.1z"/>
			<path class="st0" d="M1741.6-26.7l-8.3,10.9l-8.6-10.9h-3.4v18.1h3.4v-12c0-0.4-0.1-0.6-0.1-1c0.1,0.3,0.3,0.6,0.5,0.9
				s0.4,0.7,0.6,1l6.8,9.1h0.9l6.8-9.1c0.2-0.2,0.3-0.5,0.5-0.7c0.1-0.1,0.1-0.2,0.2-0.5s0.2-0.4,0.4-0.6c0,0.5-0.1,0.9-0.1,1.1
				v11.9h3.8v-18.1L1741.6-26.7L1741.6-26.7z"/>
			<path class="st0" d="M1660.2-26.7h-17.9c-1.7,0-3,0.2-3.6,0.9s-0.9,1.7-0.9,3.4V-12h-3.9v3.4h29.8V-12h-3.6L1660.2-26.7
				L1660.2-26.7z M1656-12h-13.9v-11.4h13.9V-12z"/>
		</g>
		<g transform="translate(0 25.336)">
			<path class="st0" d="M1507.1-25.3L1507.1-25.3v0.9h-3v5.3h-0.9v-6.2H1507.1z"/>
			<path class="st0" d="M1521-25.3c1.2-0.1,2.2,0.8,2.2,2l0,0c0,1.1-0.9,2-2.1,2c-0.1,0-0.1,0-0.2,0h-1.1v2.4h-0.9v-6.2h2L1521-25.3
				L1521-25.3z M1519.9-22.2h1.1c0.6,0,1.1-0.4,1.1-1s-0.5-1-1-1h-0.1h-1.1V-22.2z"/>
			<path class="st0" d="M1535.4-25.3L1535.4-25.3l1.9,3.9l1.7-3.7h1.1l-2.6,5.3c-0.4,0.8-1.3,1.2-2.2,1.1v-0.9l0,0
				c0.5,0.1,1.1-0.2,1.4-0.6l0.1-0.1l-2.4-4.7h1V-25.3z"/>
			<path class="st0" d="M1556.8-25.3L1556.8-25.3v6.3h-0.9v-5.3h-3.2v5.3h-0.9v-6.2L1556.8-25.3L1556.8-25.3z"/>
			<path class="st0" d="M1574.2-25.3L1574.2-25.3v6.3h-0.9v-5.3h-3.2v5.3h-0.9v-6.2L1574.2-25.3L1574.2-25.3z"/>
			<path class="st0" d="M1589.3-25.3L1589.3-25.3l2.6,6.3h-0.9l-0.6-1.5h-2.9l-0.6,1.5h-0.9l2.5-6.2h0.7v-0.1H1589.3z M1587.8-21.3
				h2.1l-1-2.7L1587.8-21.3z"/>
			<path class="st0" d="M1617.1-25.3L1617.1-25.3v2.4h0.6l2.1-2.4h1.1l-2.5,2.7l2.7,3.6h-1.1l-2.4-3h-0.5v3h-0.9v-6.2h0.7v-0.1
				H1617.1z"/>
			<path class="st0" d="M1638.7-22c0,1.9-1.5,3.4-3.4,3.4s-3.4-1.5-3.4-3.4s1.5-3.4,3.4-3.4l0,0C1637.2-25.4,1638.7-23.9,1638.7-22
				L1638.7-22z M1633-22c0,1.3,0.9,2.3,2.2,2.4c0.1,0,0.1,0,0.2,0c1.3,0,2.4-1.1,2.4-2.4l0,0c0-1.3-0.9-2.3-2.2-2.4
				c-0.1,0-0.1,0-0.2,0C1634.1-24.4,1633-23.3,1633-22L1633-22z"/>
			<path class="st0" d="M1651.5-25.3L1651.5-25.3l2.4,2.9l2.2-2.7h0.9v6.2h-0.9v-5l-2.2,2.7h-0.1l-2.2-2.7v5h-0.7v-6.2h0.7v-0.2
				H1651.5z"/>
			<path class="st0" d="M1674.5-25.3L1674.5-25.3v6.3h-0.9v-5.3h-3.2v5.3h-1v-6.2L1674.5-25.3L1674.5-25.3z"/>
			<path class="st0" d="M1689.7-25.3L1689.7-25.3l2.6,6.3h-0.9l-0.6-1.5h-2.9l-0.6,1.5h-0.9l2.5-6.2h0.7v-0.1H1689.7z M1688.2-21.3
				h2.1l-1-2.7L1688.2-21.3z"/>
			<path class="st0" d="M1704.7-25.3L1704.7-25.3v2.4h3.5v-2.4h0.9v6.2h-0.9v-3h-3.5v3h-0.9v-6.2H1704.7z"/>
			<path class="st0" d="M1722.3-25.3L1722.3-25.3v4.8l3.7-4.8h1v6.2h-0.9v-4.8l-3.7,4.8h-1v-6.2H1722.3L1722.3-25.3z"/>
			<path class="st0" d="M1740.3-25.3L1740.3-25.3v4.8l3.7-4.8h1v6.2h-0.9v-4.8l-3.7,4.8h-1v-6.2H1740.3L1740.3-25.3z M1741.5-26.7
				L1741.5-26.7c0.1,0.3,0.4,0.5,0.7,0.5c0.3,0,0.6-0.1,0.7-0.4h0.7c-0.2,0.9-1.1,1.4-2,1.2c-0.6-0.2-1-0.6-1.2-1.2h1v-0.1H1741.5z"
				/>
		</g>
	</g>
	<path class="st0" d="M1523.2-12.7l0.7-1.9h-11.3v10.8h9.2c0.7,0.1,1.3-0.1,1.9-0.5c0.4-0.4,0.6-1,0.6-1.6v-2.4
		c0-0.6-0.2-1.2-0.6-1.6c-0.5-0.4-1.2-0.6-1.9-0.5h-6.7v-2.4L1523.2-12.7L1523.2-12.7z M1520.8-8.5c0.3,0,0.6,0.1,0.9,0.2
		c0.2,0.2,0.2,0.4,0.2,0.6v1.1c0,0.2-0.1,0.5-0.2,0.6s-0.5,0.1-0.9,0.1h-5.6v-2.9h5.6V-8.5z"/>
	<path class="st0" d="M1549.9,8.5v10.8h2v-7.8c0,0.2,0.1,0.4,0.2,0.5c0.1,0.2,0.2,0.4,0.4,0.6l4.1,5.5h0.5l4.1-5.3
		c0.1-0.1,0.1-0.2,0.2-0.5c0-0.1,0.1-0.1,0.1-0.2s0.1-0.2,0.2-0.4v7.8h2.4V8.7h-2l-5,6.5l-5.1-6.5h-2.2V8.5H1549.9z"/>
	<path class="st0" d="M1591.4-14.6h-3.4l5.2,5.2l-5.1,5.6h3l3.6-4.2l4,4.2h3.4l-5.8-5.8l4.7-5h-2.9l-3.2,3.7L1591.4-14.6z"/>
	<path class="st0" d="M1619.1,4.7l-8.7-5.6v-17l-15.3-8.8l-15.3,8.8v17l-8.3,5.7l-14.7-8.4l-14.7,8.4l-8.4-5.8v-16.4l8.7-5.8
		l-0.7-0.9l-8.6,5.8l-14.7-8.4l-15.3,8.8v17.6l15.3,8.8l14.7-8.4l8.4,5.8v16.5l-8.7,6l0.5,0.9l8.6-6l14.8,8.4l15.3-8.8V5.7l8.4-5.8
		l14.7,8.6l14.7-8.4l8.7,5.6L1619.1,4.7z M1532.7-0.9l-14.3,8.2l-14.2-8.2v-16.5l14.3-8.2l14.3,8.2v16.5
		C1532.8-0.9,1532.7-0.9,1532.7-0.9z M1571.1,22.2l-14.3,8.2l-14.3-8.2V5.7l14.3-8.2l14.3,8.2V22.2z M1609.3-0.9l-14.2,8.2
		l-14.3-8.2v-16.5l14.3-8.2l14.3,8.2v16.5L1609.3-0.9z"/>
	<rect x="1530.2" y="-14.6" class="st0" width="1" height="11.4"/>
	
		<rect x="1511.8" y="-5" transform="matrix(0.5048 -0.8632 0.8632 0.5048 747.9385 1305.9941)" class="st0" width="1" height="12.2"/>
	<rect x="1544.5" y="3.1" transform="matrix(0.8672 -0.498 0.498 0.8672 204.22 772.826)" class="st0" width="12.8" height="1"/>
	
		<rect x="1550.3" y="17.8" transform="matrix(0.4967 -0.8679 0.8679 0.4967 759.5268 1358.1201)" class="st0" width="1" height="12.7"/>
	<rect x="1567.6" y="7.8" class="st0" width="1" height="12.3"/>
	
		<rect x="1588.6" y="-5.2" transform="matrix(0.4967 -0.8679 0.8679 0.4967 798.8076 1379.8236)" class="st0" width="1" height="12.7"/>
</g>
</svg>
