<?xml version="1.0" encoding="utf-8"?>
<!-- Generator: Adobe Illustrator 16.0.0, SVG Export Plug-In . SVG Version: 6.00 Build 0)  -->
<!DOCTYPE svg PUBLIC "-//W3C//DTD SVG 1.1//EN" "http://www.w3.org/Graphics/SVG/1.1/DTD/svg11.dtd">
<svg version="1.1" id="Слой_1" xmlns="http://www.w3.org/2000/svg" xmlns:xlink="http://www.w3.org/1999/xlink" x="0px" y="0px"
	 width="313.5px" height="162.017px" viewBox="0 335.313 313.5 162.017" enable-background="new 0 335.313 313.5 162.017"
	 xml:space="preserve">
<path fill="#FFFFFF" d="M58.547,376.125l1.813-4.922H31.088v27.977h23.831c1.813,0.26,3.368-0.259,4.922-1.294
	c1.036-1.036,1.554-2.59,1.554-4.146v-6.217c0-1.554-0.518-3.108-1.554-4.145c-1.295-1.037-3.109-1.554-4.922-1.296H37.563v-6.217
	L58.547,376.125L58.547,376.125z M52.33,387.005c0.777,0,1.555,0.26,2.332,0.519c0.518,0.518,0.518,1.037,0.518,1.554v2.85
	c0,0.518-0.259,1.295-0.518,1.554c-0.259,0.259-1.295,0.259-2.332,0.259H37.823v-7.512H52.33V387.005z"/>
<path fill="#FFFFFF" d="M127.711,431.043v27.977h5.181v-20.205c0,0.517,0.26,1.035,0.519,1.295c0.259,0.519,0.518,1.036,1.036,1.555
	l10.621,14.246h1.295l10.622-13.729c0.258-0.258,0.258-0.518,0.518-1.296c0-0.258,0.26-0.258,0.26-0.518
	c0-0.259,0.258-0.519,0.517-1.037v20.207h6.218v-27.978h-5.182l-12.952,16.839l-13.21-16.839h-5.7v-0.518H127.711z"/>
<path fill="#FFFFFF" d="M235.215,371.203h-8.808l13.47,13.471l-13.211,14.506h7.771l9.326-10.879l10.361,10.879h8.808
	l-15.025-15.024l12.175-12.953h-7.512l-8.29,9.585L235.215,371.203z"/>
<path fill="#FFFFFF" d="M306.971,421.199l-22.537-14.507v-44.037L244.8,339.859l-39.634,22.796v44.037l-21.5,14.766l-38.08-21.76
	l-38.08,21.76l-21.76-15.025V363.95l22.536-15.025l-1.813-2.331l-22.277,15.024l-38.08-21.76L6.479,362.655v45.592l39.634,22.796
	l38.08-21.76l21.759,15.025v42.741l-22.536,15.543l1.295,2.331l22.277-15.543l38.339,21.76l39.634-22.796V423.79l21.76-15.025
	l38.079,22.278l38.08-21.76l22.537,14.507L306.971,421.199z M83.156,406.692l-37.043,21.242L9.328,406.692V363.95l37.044-21.242
	l37.043,21.242v42.742H83.156z M182.63,466.531l-37.044,21.242l-37.044-21.242V423.79l37.044-21.242l37.044,21.242V466.531z
	 M281.584,406.692L244.8,427.935l-37.043-21.242V363.95l37.043-21.242l37.044,21.242v42.742H281.584z"/>
<rect x="76.68" y="371.203" fill="#FFFFFF" width="2.59" height="29.532"/>
<rect x="29.023" y="396.013" transform="matrix(-0.5048 0.8633 -0.8633 -0.5048 401.1248 593.5107)" fill="#FFFFFF" width="2.591" height="31.603"/>
<rect x="113.831" y="416.945" transform="matrix(-0.8672 0.498 -0.498 -0.8672 451.7743 715.9928)" fill="#FFFFFF" width="33.158" height="2.59"/>
<rect x="128.728" y="455.169" transform="matrix(-0.4964 0.8681 -0.8681 -0.4964 603.9731 592.8702)" fill="#FFFFFF" width="2.591" height="32.899"/>
<rect x="173.562" y="429.229" fill="#FFFFFF" width="2.591" height="31.861"/>
<rect x="228.082" y="395.544" transform="matrix(-0.4967 0.8679 -0.8679 -0.4967 700.8871 417.5513)" fill="#FFFFFF" width="2.591" height="32.898"/>
</svg>
