<?xml version="1.0" encoding="utf-8"?>
<!-- Generator: Adobe Illustrator 19.2.1, SVG Export Plug-In . SVG Version: 6.00 Build 0)  -->
<svg version="1.1" id="Слой_1" xmlns="http://www.w3.org/2000/svg" xmlns:xlink="http://www.w3.org/1999/xlink" x="0px" y="0px"
	 viewBox="0 0 110.6 110.6" style="enable-background:new 0 0 110.6 110.6;" xml:space="preserve">
<style type="text/css">
	.st0{fill:#F2DA00;}
</style>
<g id="Group_17" transform="translate(-1103.258 987.906)">
	<path id="Path_44" class="st0" d="M1162.7-935.4h-8.2c-3.4,0-6.2-2.8-6.2-6.2c0-3.4,2.8-6.2,6.2-6.2l0,0h14.5
		c1.6,0,2.8-1.2,2.9-2.8s-1.2-2.8-2.8-2.9c0,0-0.1,0-0.1,0h-7.6v-5.8c0-1.6-1.3-2.8-2.9-2.8c-1.5,0-2.7,1.3-2.8,2.8v5.8h-1.3
		c-6.5,0-11.8,5.3-11.8,11.8s5.3,11.8,11.8,11.8h8.2c3.4,0,6.2,2.8,6.2,6.2c0,3.4-2.8,6.2-6.2,6.2c0,0,0,0,0,0h-14.8
		c-1.6,0-2.8,1.3-2.8,2.9c0,1.5,1.3,2.7,2.8,2.8h7.8v5.9c0,1.6,1.2,2.8,2.8,2.9c1.6,0,2.8-1.2,2.9-2.8c0,0,0-0.1,0-0.1v-5.9h1.4
		c6.5-0.1,11.7-5.4,11.7-12C1174.4-930.2,1169.1-935.4,1162.7-935.4z"/>
	<path id="Path_45" class="st0" d="M1197.7-971.7c-21.6-21.6-56.6-21.6-78.2,0c-21.6,21.6-21.6,56.6,0,78.2
		c21.6,21.6,56.6,21.6,78.2,0C1219.3-915.1,1219.3-950.1,1197.7-971.7z M1158.6-882.9c-27.4,0-49.7-22.2-49.7-49.6
		c0-27.4,22.2-49.7,49.7-49.7s49.7,22.2,49.7,49.7l0,0C1208.2-905.2,1186-883,1158.6-882.9z"/>
</g>
</svg>
