<?xml version="1.0" encoding="utf-8"?>
<!-- Generator: Adobe Illustrator 19.2.1, SVG Export Plug-In . SVG Version: 6.00 Build 0)  -->
<svg version="1.1" id="Слой_1" xmlns="http://www.w3.org/2000/svg" xmlns:xlink="http://www.w3.org/1999/xlink" x="0px" y="0px"
	 viewBox="0 0 101.5 110.7" style="enable-background:new 0 0 101.5 110.7;" xml:space="preserve">
<style type="text/css">
	.st0{clip-path:url(#SVGID_2_);}
	.st1{fill:#F2DA00;}
</style>
<g id="Group_19" transform="translate(-500.387 987.906)">
	<g id="Group_12">
		<g>
			<defs>
				<rect id="SVGID_1_" x="500.4" y="-987.9" width="101.5" height="110.7"/>
			</defs>
			<clipPath id="SVGID_2_">
				<use xlink:href="#SVGID_1_"  style="overflow:visible;"/>
			</clipPath>
			<g id="Group_11" class="st0">
				<path id="Path_49" class="st1" d="M550.9-877.4c-5.3,0-10.4-2.1-14.2-5.9c-1-1-1-2.6,0-3.7c1-1,2.6-1,3.7,0c0,0,0,0,0,0
					c5.9,5.8,15.3,5.8,21.2,0c2.8-2.8,4.4-6.6,4.4-10.6v-3.2l-15-8.7l-6.5,3.7c-1.2,0.7-2.8,0.3-3.5-0.9s-0.3-2.8,0.9-3.5l3.9-2.2
					l-9.9-5.7v7.4c0,1.4-1.1,2.6-2.6,2.6s-2.6-1.1-2.6-2.6V-921l-15-8.7l-2.8,1.6c-7.2,4.2-9.6,13.3-5.5,20.5
					c1.4,2.4,3.4,4.3,5.8,5.6c1.2,0.7,1.7,2.3,0.9,3.5c-0.7,1.2-2.2,1.6-3.4,1c-9.7-5.4-13.3-17.6-7.9-27.4c1.8-3.2,4.4-5.9,7.5-7.7
					l0.2-0.1l-0.2-0.1c-9.6-5.6-12.8-17.9-7.3-27.5l0,0c5.6-9.6,17.9-12.9,27.5-7.4l0.2,0.1v-0.2c0-11.1,8.9-20.1,20-20.1
					c5,0,9.8,1.8,13.6,5.2c1.1,0.9,1.2,2.6,0.2,3.6s-2.6,1.2-3.6,0.2c0,0,0,0,0,0c-6.1-5.6-15.6-5.1-21.1,1
					c-2.5,2.8-3.9,6.4-3.9,10.1v3.2l15,8.7l8.1-4.7c1.2-0.7,2.8-0.3,3.5,0.9s0.3,2.8-0.9,3.5l-5.5,3.2l9.9,5.7v-2.9
					c0-1.4,1.1-2.6,2.6-2.6c1.4,0,2.6,1.1,2.6,2.6v5.9l15,8.7l2.8-1.6c7.2-4.2,9.6-13.3,5.5-20.5c-1.4-2.4-3.4-4.4-5.9-5.7
					c-1.2-0.7-1.7-2.3-1-3.5c0.7-1.2,2.2-1.7,3.4-1c9.8,5.3,13.4,17.5,8.1,27.3c-1.8,3.3-4.4,6-7.6,7.8l-0.2,0.1l0.2,0.1
					c4.6,2.7,8,7.1,9.3,12.2c1.4,5.1,0.7,10.6-2,15.2c0,0,0,0,0,0c0,0,0,0,0,0c-5.6,9.6-17.9,12.9-27.5,7.4l-0.2-0.1v0.2
					C571.1-886.4,562.1-877.4,550.9-877.4L550.9-877.4z M571.1-903.7l2.8,1.6c7.2,4.1,16.3,1.7,20.5-5.5v0
					c4.1-7.2,1.7-16.3-5.5-20.5l-2.8-1.6l-15,8.7L571.1-903.7L571.1-903.7z M556.1-912.4l9.9,5.7v-11.4L556.1-912.4z M535.9-924
					l15,8.7l15-8.7v-17.3l-15-8.7l-15,8.7V-924z M520.9-932.6l9.9,5.7v-11.4L520.9-932.6z M571.1-938.3v11.4l9.9-5.7L571.1-938.3z
					 M507.5-957.7L507.5-957.7c-4.1,7.2-1.7,16.4,5.5,20.5l2.8,1.6l15-8.7v-17.3l-2.8-1.6C520.9-967.3,511.7-964.9,507.5-957.7
					L507.5-957.7z M535.9-958.6v11.4l9.9-5.7L535.9-958.6z M527.6-888.4c-4.6,0-8.3-3.7-8.3-8.3c0-4.6,3.7-8.3,8.3-8.3
					s8.3,3.7,8.3,8.3C536-892.2,532.2-888.4,527.6-888.4z M527.6-899.9c-1.8,0-3.2,1.4-3.2,3.2s1.4,3.2,3.2,3.2s3.2-1.4,3.2-3.2l0,0
					C530.8-898.5,529.4-899.9,527.6-899.9z M573.6-959.5c-4.6,0-8.3-3.7-8.3-8.3s3.7-8.3,8.3-8.3c4.6,0,8.3,3.7,8.3,8.3c0,0,0,0,0,0
					C582-963.2,578.2-959.5,573.6-959.5L573.6-959.5z M573.6-971c-1.8,0-3.2,1.4-3.2,3.2s1.4,3.2,3.2,3.2s3.2-1.4,3.2-3.2l0,0
					C576.8-969.5,575.4-971,573.6-971z"/>
			</g>
		</g>
	</g>
</g>
</svg>
